<?xml version="1.0" encoding="UTF-8" standalone="no"?>
<!-- Created with Inkscape (http://www.inkscape.org/) -->

<svg
   xmlns:dc="http://purl.org/dc/elements/1.1/"
   xmlns:cc="http://creativecommons.org/ns#"
   xmlns:rdf="http://www.w3.org/1999/02/22-rdf-syntax-ns#"
   xmlns:svg="http://www.w3.org/2000/svg"
   xmlns="http://www.w3.org/2000/svg"
   xmlns:sodipodi="http://sodipodi.sourceforge.net/DTD/sodipodi-0.dtd"
   xmlns:inkscape="http://www.inkscape.org/namespaces/inkscape"
   id="svg2"
   version="1.1"
   inkscape:version="0.48.3.1 r9886"
   width="360"
   height="254"
   sodipodi:docname="bike-frame.svg"
   inkscape:export-filename="/home/ethanis/code/spokes/resources/public/img/bike-frame.png"
   inkscape:export-xdpi="90"
   inkscape:export-ydpi="90">
  <metadata
     id="metadata8">
    <rdf:RDF>
      <cc:Work
         rdf:about="">
        <dc:format>image/svg+xml</dc:format>
        <dc:type
           rdf:resource="http://purl.org/dc/dcmitype/StillImage" />
        <dc:title></dc:title>
      </cc:Work>
    </rdf:RDF>
  </metadata>
  <defs
     id="defs6" />
  <sodipodi:namedview
     pagecolor="#ffffff"
     bordercolor="#666666"
     borderopacity="1"
     objecttolerance="10"
     gridtolerance="10"
     guidetolerance="10"
     inkscape:pageopacity="0"
     inkscape:pageshadow="2"
     inkscape:window-width="1366"
     inkscape:window-height="712"
     id="namedview4"
     showgrid="false"
     inkscape:zoom="1.8683002"
     inkscape:cx="186.80149"
     inkscape:cy="127.22913"
     inkscape:window-x="0"
     inkscape:window-y="27"
     inkscape:window-maximized="1"
     inkscape:current-layer="svg2"
     fit-margin-top="0"
     fit-margin-left="0"
     fit-margin-right="0"
     fit-margin-bottom="0" />
  <path
     style="fill:#000000"
     d="m 220.63995,9.9999988e-7 0,5.43496000000012 0,5.463416 17.84403,0.02846 17.84403,0.02845 3.62011,4.154473 3.62012,4.126017 -4.19022,7.426831 -4.19021,7.426831 5.2734,18.552849 c 2.89226,10.211563 5.05389,18.771974 4.81732,19.008135 -0.23657,0.236156 -33.2019,0.426829 -73.25743,0.426829 l -72.82985,0 -1.22571,-3.613822 -1.22571,-3.585367 8.06687,-1.93496 c 17.08451,-4.044149 32.37273,-11.663743 30.92775,-15.422767 -1.36031,-3.538718 -3.07882,-3.783714 -40.0493,-5.577237 -52.364504,-2.540321 -53.731614,-2.485678 -53.731614,2.162603 0,2.581262 8.107487,11.179968 13.140729,13.914637 4.230647,2.298605 15.241813,5.662602 18.499641,5.662602 2.142861,0 3.218893,1.776873 6.157044,10.243905 l 1.93833,5.605697 -17.0744,21.199187 -28.561845,37.41875 c 0,0.25009 -10.277046,14.13235 -22.860877,30.84553 -18.497513,24.56741 -23.2610125,30.38182 -24.8562161,30.41871 -2.8379048,0.0657 -7.4508172,5.00261 -8.15238275,8.73578 -0.80683733,4.29337 1.09746815,8.84189 4.70329775,11.29675 2.4996688,1.70179 3.5572666,1.92002 7.6392961,1.50813 3.837052,-0.38717 11.880906,0.89223 41.816592,6.63008 20.383137,3.90688 37.478215,7.08537 37.968443,7.08537 l 52.648432,10.38609 c 0.17465,0.51071 2.12538,2.65129 4.33273,4.75203 12.96462,8.89719 28.08521,2.87767 27.96325,-10.98374 l -0.11402,-4.83741 51.67926,-58.36179 c 28.42381,-32.10386 51.96463,-58.07641 52.30637,-57.70734 0.34176,0.3691 1.46797,3.02672 2.50843,5.91871 3.5279,10.71464 6.94431,21.33568 11.23081,31.72765 7.70954,18.60417 19.18633,33.76514 36.77124,48.65855 4.80288,4.06777 7.38275,6.86287 7.38275,7.96748 0,4.39479 5.17724,9.07723 10.0337,9.07723 6.28664,0 10.94586,-4.72253 10.94586,-11.09756 0,-3.73381 -0.33528,-4.54608 -3.24955,-7.45529 -1.94184,-1.93846 -4.06066,-3.24031 -5.24489,-3.2439 -1.30114,-0.005 -4.88025,-2.55783 -10.37576,-7.39838 C 326.98004,179.60981 318.19429,167.48097 312.11188,151.95121 300.84357,121.747 294.0954,99.215613 287.34118,80.556923 280.06386,60.449418 273.46819,42.293499 272.66119,40.207326 l -1.48226,-3.813009 4.53227,-7.512197 c 2.49784,-4.137184 4.45378,-8.000017 4.33274,-8.593498 -0.12104,-0.593481 -4.15928,-5.415055 -8.97902,-10.69919 L 262.28543,0 241.4769,0 z M 198.14964,89.662623 l 73.42845,0 1.02618,3.44309 c 0.94386,3.14487 0.87421,3.59725 -0.91216,5.83333 -3.4222,4.283767 -96.81118,108.767087 -97.03045,108.556937 -6.11207,4.16977 -5.89845,4.1584 -10.17623,-3.84146 -2.66455,-7.07374 -2.71765,-7.096 -19.78236,-54.06506 -11.44273,-31.49507 -19.33464,-58.297757 -19.55431,-58.873987 -0.31764,-0.83322 14.60854,-1.05285 73.00088,-1.05285 z M 107.7038,100.27644 c 0.51416,-0.12353 12.81505,36.67803 34.34832,102.75206 6.26056,19.21026 6.85188,21.59756 5.44443,21.59756 -0.86971,0 -7.15359,-0.57785 -13.96737,-1.28049 l -39.479243,-6.4878 C 92.780008,216.6175 77.027385,214.05221 59.017493,211.16671 41.007609,208.2812 25.924775,205.62756 25.524312,205.27646 25.123839,204.92535 34.8962,191.57771 47.244996,175.5976 l 22.46181,-29.05286 24.571216,-30.76016 c 7.052738,-8.44955 13.106498,-15.43143 13.425778,-15.50814 z"
     id="path2987"
     inkscape:connector-curvature="0"
     sodipodi:nodetypes="ccccccccccssccccsssssccccscssssccccccsccssssscscccccsccccsccsccssscssccsscccc" />
</svg>
