<?xml version="1.0" encoding="UTF-8" standalone="no"?>
<!-- Created with Inkscape (http://www.inkscape.org/) -->

<svg
   xmlns:dc="http://purl.org/dc/elements/1.1/"
   xmlns:cc="http://creativecommons.org/ns#"
   xmlns:rdf="http://www.w3.org/1999/02/22-rdf-syntax-ns#"
   xmlns:svg="http://www.w3.org/2000/svg"
   xmlns="http://www.w3.org/2000/svg"
   xmlns:sodipodi="http://sodipodi.sourceforge.net/DTD/sodipodi-0.dtd"
   xmlns:inkscape="http://www.inkscape.org/namespaces/inkscape"
   id="svg2"
   version="1.1"
   inkscape:version="0.48.3.1 r9886"
   width="653"
   height="379"
   sodipodi:docname="bike-svg.svg">
  <metadata
     id="metadata8">
    <rdf:RDF>
      <cc:Work
         rdf:about="">
        <dc:format>image/svg+xml</dc:format>
        <dc:type
           rdf:resource="http://purl.org/dc/dcmitype/StillImage" />
        <dc:title></dc:title>
      </cc:Work>
    </rdf:RDF>
  </metadata>
  <defs
     id="defs6" />
  <sodipodi:namedview
     pagecolor="#ffffff"
     bordercolor="#666666"
     borderopacity="1"
     objecttolerance="10"
     gridtolerance="10"
     guidetolerance="10"
     inkscape:pageopacity="0"
     inkscape:pageshadow="2"
     inkscape:window-width="1072"
     inkscape:window-height="662"
     id="namedview4"
     showgrid="false"
     inkscape:zoom="2.6421754"
     inkscape:cx="488.2802"
     inkscape:cy="165.49272"
     inkscape:window-x="0"
     inkscape:window-y="27"
     inkscape:window-maximized="0"
     inkscape:current-layer="svg2"
     inkscape:snap-object-midpoints="true" />
  <path
     style="fill:#000000"
     d="M 115.68058,362.1878 C 80.889821,355.90507 49.805169,332.39986 33.642735,300.15342 25.44277,283.79329 21.841421,268.13652 21.891827,249.06668 c 0.07981,-30.17935 10.307077,-55.72459 31.666671,-79.09538 6.229986,-6.8166 20.549443,-17.52092 30.003224,-22.42853 8.778433,-4.55703 23.539668,-9.56635 33.410218,-11.338 9.77722,-1.7549 30.80273,-1.53732 40.75423,0.42173 8.46485,1.6664 21.6363,5.97742 27.71641,9.07159 2.70624,1.37721 3.74578,1.54658 4.2715,0.69593 0.38215,-0.61833 7.22241,-19.19162 15.20056,-41.27398 7.97816,-22.082349 15.2296,-42.024231 16.11432,-44.315296 l 1.60857,-4.165571 -4.97888,-8.260933 c -2.73839,-4.543513 -4.87032,-8.794198 -4.73762,-9.445967 0.1327,-0.651769 4.56448,-5.933033 9.84839,-11.736144 l 9.60712,-10.551109 22.83987,0 22.83986,0 0,5.983132 0,5.983132 -19.56024,0.04145 -19.56024,0.04145 -3.9772,4.549395 -3.97721,4.549395 4.59163,8.145224 4.59162,8.145224 -5.76509,20.389965 c -3.1708,11.214481 -5.5529,20.602167 -5.29354,20.861522 0.25935,0.25935 36.40044,0.47155 80.31353,0.47155 l 79.84199,0 1.34768,-3.955258 1.3477,-3.955258 -8.85515,-2.099788 c -18.72984,-4.441343 -35.49457,-12.820484 -33.91043,-16.948697 1.49131,-3.886271 3.39424,-4.151452 43.92517,-6.121124 57.40748,-2.789817 58.91084,-2.729194 58.91084,2.375613 0,2.834779 -8.90946,12.261033 -14.42743,15.264285 -4.63808,2.524361 -16.70705,6.235408 -20.27862,6.235408 -2.34923,0 -3.50841,1.935027 -6.72952,11.233641 l -2.13769,6.170989 18.71766,23.28444 c 10.29473,12.80643 18.80654,23.4075 18.91516,23.55793 0.10863,0.15043 3.45718,-1.35757 7.44126,-3.35113 17.25767,-8.6354 33.03718,-12.36192 52.80761,-12.47117 15.26114,-0.0843 23.08936,1.09251 36.63192,5.50701 38.93975,12.69328 68.16545,45.48043 76.64193,85.98153 2.57487,12.30287 2.82682,31.64882 0.56394,43.30232 -4.33983,22.34947 -14.50338,42.07373 -30.05354,58.32453 -17.48243,18.27014 -38.99324,29.91925 -62.9679,34.10008 -10.30378,1.79683 -29.27228,1.83444 -39.34439,0.0781 -39.82432,-6.94478 -74.43379,-35.81532 -88.31714,-73.67242 -1.67097,-4.55639 -3.33404,-8.63739 -3.69571,-9.06889 -0.88559,-1.05655 -34.3416,4.91472 -34.78312,6.20814 -0.19147,0.56088 -2.32805,2.90739 -4.74798,5.21446 l -4.39986,4.19468 2.97085,14.21496 2.97085,14.21496 4.07833,0.46024 c 4.02883,0.45465 4.08169,0.50601 4.35446,4.23043 l 0.27611,3.7702 -9.02069,0.59733 c -4.96138,0.32853 -10.57401,0.59947 -12.4725,0.6021 l -3.45181,0.005 0,-4.14217 c 0,-4.09841 0.0331,-4.14217 3.13489,-4.14217 l 3.13488,0 -3.77379,-14.55213 -3.77379,-14.55211 -5.11411,-2.43079 c -7.02427,-3.3387 -9.72225,-7.44321 -9.55905,-14.54241 l 0.12191,-5.30278 -56.65669,-64.10347 c -31.16117,-35.25691 -56.96324,-63.77183 -57.3379,-63.3665 -0.37467,0.40534 -1.61449,3.33552 -2.75515,6.51154 l -2.07394,5.77457 8.21783,8.03265 c 10.07459,9.84758 16.30956,18.1367 22.28672,29.6292 9.44773,18.16552 13.27153,33.52616 13.2988,53.42272 0.0439,32.01152 -12.14784,60.22824 -35.80325,82.86377 -16.49858,15.78726 -36.56292,25.98743 -58.71893,29.85112 -10.14548,1.76922 -30.57193,1.74199 -40.51736,-0.054 z m 42.25281,-22.36909 c 30.07012,-7.40181 54.64252,-29.16824 65.4698,-57.9937 11.98934,-31.91921 4.54949,-69.6149 -17.6386,-93.801 -11.72044,-13.47508 -22.86446,-17.98723 -28.6291,-22.08798 -13.44014,-6.77151 -28.93067,-9.86816 -45.65587,-9.12688 -13.51061,0.59881 -22.49923,2.81654 -34.621593,8.54204 -56.85074,26.85111 -71.44255,100.94049 -28.905568,146.76697 15.541175,16.74301 34.074811,26.31128 57.764061,29.82157 6.02893,0.89336 25.06117,-0.35964 32.21687,-2.12102 z m 370.95417,0 c 59.21181,-14.57508 89.0346,-80.94587 60.30489,-134.20888 -12.28185,-22.76975 -33.57845,-39.56204 -58.92416,-46.46149 -6.89108,-1.87585 -9.7999,-2.12109 -24.39277,-2.05647 -14.86178,0.0658 -17.50279,0.32354 -25.63607,2.50181 -8.42379,2.2561 -23.66113,10.67465 -23.66113,10.67465 -23.23386,20.35197 -33.7136,34.24985 -38.25278,54.67419 -3.01059,13.54633 -3.33246,26.10334 -0.3354,46.4096 1.23247,9.08343 5.10473,19.34638 12.04306,29.71928 5.76581,8.61998 16.74827,19.69798 24.75558,24.97093 11.47018,7.55333 26.68782,13.58478 39.12047,15.50526 8.24408,1.27347 26.43361,0.37441 34.97831,-1.72888 z M 373.55158,261.93117 c 7.46998,-0.77164 14.84019,-1.60238 16.37825,-1.84607 l 2.79647,-0.44309 0.10891,-12.65152 c 0.26556,-30.84687 10.73485,-57.54161 31.02646,-79.11172 l 6.76056,-7.18651 -14.05812,-16.87165 c -7.73195,-9.27941 -14.3445,-16.94058 -14.69453,-17.02482 -0.56368,-0.13567 -14.04877,40.27253 -37.65581,112.83595 -6.86348,21.09698 -7.52054,23.70241 -5.97754,23.70241 0.95347,0 7.84537,-0.63134 15.31535,-1.40298 z M 328.08859,237.2527 c -0.5858,-6.93003 -0.64138,-7.0559 -3.11546,-7.0559 -1.83421,0 -2.66991,-0.56304 -3.07405,-2.07108 -1.42226,-5.30714 -1.44912,-5.29277 9.89031,-5.29277 l 10.47048,0 0.5753,2.87651 c 0.94196,4.70976 0.71917,5.40783 -1.7259,5.40783 -2.55706,0 -2.77435,1.34669 -1.48522,9.20481 0.64636,3.94003 1.70459,1.04257 21.68393,-59.37107 11.55244,-34.93228 21.20147,-64.03102 21.4423,-64.66385 0.34823,-0.91505 -16.04123,-1.1506 -80.05706,-1.1506 l -80.49494,0 -1.1258,3.75759 c -1.03476,3.45374 -0.9535,3.97365 1.0049,6.42935 3.75178,4.70449 106.13601,119.43789 106.3764,119.2071 0.12719,-0.12212 -0.0372,-3.39718 -0.36519,-7.27792 z"
     id="path2987"
     inkscape:connector-curvature="0"
     sodipodi:nodetypes="csssssssssscssscccccccccccssscccssssssscscsssssssssscscccsscsccsscccsscssscsssssccssccsssssssssscscsssssscsscscssscssscsssssscsscc" />
</svg>
